<svg id="Слой_1"  viewBox="0 0 88.38 21.73"><defs><style>.cls-1{fill:#006072;}</style></defs><path class="cls-1" d="M3.17,14.23V0H0V14.73a2.26,2.26,0,0,0,.58,1.66A2.25,2.25,0,0,0,2.25,17H5.48V14.23Z"/><polygon class="cls-1" points="85.07 5.4 81.6 13.59 78.38 5.4 74.87 5.4 79.9 16.53 77.39 21.73 80.68 21.73 88.38 5.4 85.07 5.4"/><path class="cls-1" d="M54.39,10.58h0c-.35.94-.7,1.9-1,2.88h-.09l-.15-.41c-.08-.28-.22-.66-.4-1.14s-.34-.93-.51-1.33l-2-5.11h-3l-2,5.09c-.37.94-.72,1.9-1.07,2.9H44L43,10.58,40.87,5.4H37.54l5,11.57h2.84l2.16-5.46c.36-.93.72-1.89,1.07-2.87h.09l.15.4c.08.27.22.65.4,1.12s.35.94.51,1.35L52,17H54.8L59.72,5.4H56.39Z"/><path class="cls-1" d="M13.57,7.48a3.53,3.53,0,0,0-3.83,3.7c0,2,1.07,3.68,3.83,3.68a3.53,3.53,0,0,0,3.76-3.76,3.39,3.39,0,0,0-3.76-3.62M20.48,17H17.59V15.5c-1,1.06-1.88,1.84-4.6,1.84-4,0-6.4-2.16-6.4-6.08C6.59,7.65,9.25,5,13.18,5c3.09,0,4.27,1.72,4.36,1.89h.05V5.41h2.89Z"/><path class="cls-1" d="M66.81,7.48A3.53,3.53,0,0,0,63,11.18c0,2,1.07,3.68,3.83,3.68a3.52,3.52,0,0,0,3.75-3.76,3.38,3.38,0,0,0-3.75-3.62M73.72,17H70.83V15.5c-1,1.06-1.88,1.84-4.6,1.84-4,0-6.41-2.16-6.41-6.08,0-3.61,2.67-6.26,6.6-6.26,3.08,0,4.26,1.72,4.36,1.89h0V5.41h2.89Z"/><path class="cls-1" d="M26.71,11.09a3.43,3.43,0,0,0,3.76,3.78c2.76,0,3.83-1.74,3.83-3.7,0-1.72-1-3.6-3.83-3.67a3.47,3.47,0,0,0-3.76,3.59M23.55,0h3.16V6.91h-.48A5.74,5.74,0,0,1,30.86,5c3.93,0,6.6,2.5,6.6,6.11,0,3.92-2.46,6.19-6.41,6.23-2.63,0-3.92-.83-4.61-1.85V17H23.55Z"/></svg>