<?xml version="1.0" encoding="utf-8"?>
<!-- Generator: Adobe Illustrator 24.1.2, SVG Export Plug-In . SVG Version: 6.00 Build 0)  -->
<svg version="1.1" id="Слой_1" xmlns="http://www.w3.org/2000/svg" xmlns:xlink="http://www.w3.org/1999/xlink" x="0px" y="0px"
	 viewBox="0 0 8.5 8.5" style="enable-background:new 0 0 8.5 8.5;" xml:space="preserve">
<style type="text/css">
	.st0{fill:#006072;}
</style>
<g>
	<path class="st0" d="M7.5,1C6.1-0.3,4-0.3,2.6,1C1.5,2.1,1.3,3.8,2.1,5.1c0,0,0.1,0.1,0,0.2L0.3,7.1C0,7.4-0.1,7.9,0.2,8.2l0.1,0.1
		C0.6,8.6,1,8.5,1.4,8.1l1.8-1.7c0.1-0.1,0.2,0,0.2,0c1.3,0.8,3,0.6,4.2-0.5C8.8,4.5,8.8,2.3,7.5,1 M6.8,5.2c-1,1-2.6,1-3.6,0
		c-1-1-1-2.6,0-3.6c1-1,2.6-1,3.6,0C7.8,2.6,7.8,4.2,6.8,5.2"/>
	<path class="st0" d="M5.1,1.7c-1,0-1.8,0.8-1.8,1.8c0,1,0.8,1.8,1.8,1.8c1,0,1.8-0.8,1.8-1.8C6.9,2.5,6.1,1.7,5.1,1.7 M5.1,4.3
		C4.6,4.3,4.2,4,4.2,3.5s0.4-0.8,0.8-0.8c0.5,0,0.8,0.4,0.8,0.8S5.5,4.3,5.1,4.3"/>
</g>
</svg>
