<svg
  xmlns="http://www.w3.org/2000/svg"
  viewBox="0 0 25.51 15.31"
  fill="#006272"
>
  <path
    class="cls-1"
    d="M11.92,5.17,10.26,9.3a.59.59,0,0,1-1.06,0L5.8,1.12a1.06,1.06,0,0,0-1-.68H1.56A1,1,0,0,0,.81,1.85L6.5,15.06a1.09,1.09,0,0,0,1,.69h4.48a1.07,1.07,0,0,0,1-.69L16.84,6a1,1,0,0,0-.78-1.48H12.88A1.06,1.06,0,0,0,11.92,5.17Z"
    transform="translate(-0.72 -0.44)"
  />
  <path
    class="cls-1"
    d="M25.17.44H22.28a1.25,1.25,0,0,0-1.13.8L15.57,14.08a1.16,1.16,0,0,0,.89,1.67h3a1.28,1.28,0,0,0,1.13-.81L26.12,2.22A1.23,1.23,0,0,0,25.17.44Z"
    transform="translate(-0.72 -0.44)"
  />
</svg>